<svg width="80" height="80" viewBox="0 0 80 80" fill="none" xmlns="http://www.w3.org/2000/svg">
<path d="M60.8219 14.8235H62.7123C62.7123 12.9076 64.2625 11.3571 66.1781 11.3571V9.46639C64.2625 9.46639 62.7123 7.91597 62.7123 6H60.8219C60.8219 7.91597 59.2718 9.46639 57.3562 9.46639V11.3571C59.2718 11.3571 60.8219 12.9076 60.8219 14.8235ZM61.7671 9.02521C62.1452 9.56723 62.6115 10.0336 63.1534 10.4118C62.6115 10.7899 62.1452 11.2563 61.7671 11.7983C61.389 11.2563 60.9227 10.7899 60.3808 10.4118C60.9227 10.0336 61.389 9.56723 61.7671 9.02521Z" fill="#07182D"/>
<path d="M69.5682 10.9034H67.6778C67.6778 13.8908 65.2455 16.3361 62.246 16.3361V18.2269C65.2329 18.2269 67.6778 20.6597 67.6778 23.6597H69.5682C69.5682 20.6723 72.0005 18.2269 75 18.2269V16.3361C72.0131 16.3361 69.5682 13.9034 69.5682 10.9034ZM68.623 20.0672C67.9677 18.9076 66.9973 17.937 65.8378 17.2815C66.9973 16.6261 67.9677 15.6555 68.623 14.4958C69.2784 15.6555 70.2488 16.6261 71.4082 17.2815C70.2488 17.937 69.2784 18.9076 68.623 20.0672Z" fill="#07182D"/>
<path d="M31.3567 31.4244C31.3567 34.6387 33.9781 37.2605 37.1918 37.2605C40.4055 37.2605 43.0268 34.6387 43.0268 31.4244C43.0268 28.2101 40.4055 25.5882 37.1918 25.5882C33.9781 25.5882 31.3567 28.2101 31.3567 31.4244ZM37.1918 27.479C39.3721 27.479 41.1364 29.2563 41.1364 31.4244C41.1364 33.5924 39.3595 35.3697 37.1918 35.3697C35.0241 35.3697 33.2471 33.5924 33.2471 31.4244C33.2471 29.2563 35.0241 27.479 37.1918 27.479Z" fill="#07182D"/>
<path d="M47.9293 61.0966V44.4706C47.9293 41.2563 45.3079 38.6345 42.0942 38.6345H32.3019C29.0882 38.6345 26.4668 41.2563 26.4668 44.4706V61.0966H28.3573V44.4706C28.3573 42.2899 30.1342 40.5252 32.3019 40.5252H42.0942C44.2745 40.5252 46.0389 42.3025 46.0389 44.4706V61.0966H47.9293Z" fill="#07182D"/>
<path d="M15.0362 37.1345C15.0362 39.9076 17.2921 42.1639 20.0647 42.1639C22.8373 42.1639 25.0931 39.9076 25.0931 37.1345C25.0931 34.3613 22.8373 32.105 20.0647 32.105C17.2921 32.105 15.0362 34.3613 15.0362 37.1345ZM23.2027 37.1345C23.2027 38.8613 21.7912 40.2731 20.0647 40.2731C18.3381 40.2731 16.9266 38.8613 16.9266 37.1345C16.9266 35.4076 18.3381 33.9958 20.0647 33.9958C21.7912 33.9958 23.2027 35.4076 23.2027 37.1345Z" fill="#07182D"/>
<path d="M24.1479 43.5252H16.8132C14.0405 43.5252 11.7847 45.7815 11.7847 48.5546V52.4622H13.6751V48.5546C13.6751 46.8277 15.0866 45.416 16.8132 45.416H24.1479V43.5252Z" fill="#07182D"/>
<path d="M54.3189 42.1513C57.0915 42.1513 59.3474 39.895 59.3474 37.1218C59.3474 34.3487 57.0915 32.0924 54.3189 32.0924C51.5463 32.0924 49.2904 34.3487 49.2904 37.1218C49.2904 39.895 51.5463 42.1513 54.3189 42.1513ZM54.3189 33.9958C56.0455 33.9958 57.457 35.4076 57.457 37.1345C57.457 38.8613 56.0455 40.2731 54.3189 40.2731C52.5923 40.2731 51.1808 38.8613 51.1808 37.1345C51.1808 35.4076 52.5923 33.9958 54.3189 33.9958Z" fill="#07182D"/>
<path d="M60.7085 48.5546V52.4622H62.5989V48.5546C62.5989 45.7815 60.343 43.5252 57.5704 43.5252H50.2356V45.416H57.5704C59.297 45.416 60.7085 46.8277 60.7085 48.5546Z" fill="#07182D"/>
<path d="M65.6488 50.8235L67.4888 51.2773C68.0811 48.8571 68.3836 46.3361 68.3836 43.8151V43.6891L66.4931 43.8151C66.4931 46.1849 66.2033 48.542 65.6488 50.8235Z" fill="#07182D"/>
<path d="M33.5622 14.7353L33.3353 12.8571C30.84 13.1597 28.3825 13.7773 26.0384 14.6723L26.7189 16.437C28.9244 15.5924 31.2307 15.0252 33.5622 14.7353Z" fill="#07182D"/>
<path d="M48.1562 14.5966C45.7995 13.7143 43.3419 13.1218 40.8466 12.8319L40.6323 14.7101C42.9764 14.9874 45.2827 15.542 47.5008 16.3739L48.1688 14.6092L48.1562 14.5966Z" fill="#07182D"/>
<path d="M59.0575 24.3025L60.469 23.042C58.7929 21.1639 56.9025 19.5 54.823 18.0756L53.7518 19.6387C55.6926 20.9748 57.4822 22.5504 59.0575 24.3025Z" fill="#07182D"/>
<path d="M33.6882 72.9076L33.4614 74.7857C34.6838 74.937 35.9441 75 37.1792 75C38.4142 75 39.7249 74.9244 40.9726 74.7731L40.7458 72.895C38.4268 73.1723 36.0071 73.1849 33.6882 72.895V72.9076Z" fill="#07182D"/>
<path d="M19.5101 69.5168C21.577 70.9412 23.8203 72.1261 26.1644 73.0084L26.8323 71.2437C24.6268 70.4118 22.5222 69.3025 20.5814 67.9664L19.5101 69.5168Z" fill="#07182D"/>
<path d="M59.1331 63.2395L60.5447 64.4874C62.2082 62.6092 63.6449 60.5168 64.817 58.2983L63.1408 57.416C62.0444 59.4958 60.6959 61.4622 59.1205 63.2269L59.1331 63.2395Z" fill="#07182D"/>
<path d="M47.6016 71.2185L48.2696 72.9832C50.6137 72.0882 52.8444 70.916 54.9112 69.479L53.84 67.9286C51.8992 69.2773 49.7945 70.3866 47.6016 71.2185Z" fill="#07182D"/>
<path d="M64.7666 29.2059L63.103 30.0882C64.2121 32.1807 65.0564 34.3992 65.6362 36.6807L67.4762 36.2269C66.8712 33.7941 65.9638 31.437 64.7792 29.2059H64.7666Z" fill="#07182D"/>
<path d="M9.59178 58.3613C10.7638 60.5798 12.2005 62.6597 13.8767 64.5378L15.2882 63.2773C13.7129 61.5126 12.3644 59.5588 11.2679 57.479L9.59178 58.3613Z" fill="#07182D"/>
<path d="M20.4805 19.7395L19.3967 18.1891C17.3299 19.6261 15.4521 21.3025 13.7885 23.1933L15.2 24.4412C16.7627 22.6765 18.5397 21.0882 20.4679 19.7395H20.4805Z" fill="#07182D"/>
<path d="M6 43.8782C6 46.3992 6.31507 48.9076 6.9074 51.3403L8.7474 50.8866C8.18027 48.605 7.89041 46.2479 7.89041 43.8782H6Z" fill="#07182D"/>
<path d="M11.2049 30.2521L9.52877 29.3697C8.36931 31.6008 7.47452 33.9706 6.88219 36.4034L8.72219 36.8445C9.27671 34.5504 10.1211 32.3319 11.2175 30.2395L11.2049 30.2521Z" fill="#07182D"/>
</svg>
